<svg id="Layer_1" data-name="Layer 1" xmlns="http://www.w3.org/2000/svg" xmlns:xlink="http://www.w3.org/1999/xlink" viewBox="0 0 335.6 87.98"><defs><style>.cls-1{fill:url(#linear-gradient);}.cls-2{fill:url(#linear-gradient-2);}.cls-3{fill:#fff;}.cls-4{fill:#4eb855;}</style><linearGradient id="linear-gradient" x1="120.41" y1="160.05" x2="209.49" y2="160.05" gradientUnits="userSpaceOnUse"><stop offset="0" stop-color="#86c553"/><stop offset="1" stop-color="#d4e274"/></linearGradient><linearGradient id="linear-gradient-2" x1="120.39" y1="166.35" x2="209.47" y2="166.35" xlink:href="#linear-gradient"/></defs><title>logo-new</title><path class="cls-1" d="M207.69,168.46a43.52,43.52,0,0,1-6.16,15.29,45.51,45.51,0,0,1-11.35,12,44,44,0,0,1-64.71-56.14,43.9,43.9,0,0,1,41.59-23.49,43.67,43.67,0,0,1,16.09,4.08,44.55,44.55,0,0,1,13.38,9.73A43.62,43.62,0,0,1,208.47,160a44.17,44.17,0,0,0-3.2-16.14,43.57,43.57,0,0,0-9-13.76,43,43,0,0,0-73.74,25.77,43.64,43.64,0,0,0,1.48,16,42.43,42.43,0,0,0,7.3,14.36A44.18,44.18,0,0,0,143.45,197a42.54,42.54,0,0,0,15.25,5.5,43.2,43.2,0,0,0,31.24-7.09,43.72,43.72,0,0,0,17.68-27Z" transform="translate(-120.41 -116.06)"/><path class="cls-2" d="M208.47,160a42.24,42.24,0,0,1-7.9,11.19l6.88-1.68,6.36,3.1A42.06,42.06,0,0,1,208.47,160Z" transform="translate(-120.41 -116.06)"/><path class="cls-3" d="M176.54,163a17.9,17.9,0,0,0,2.63-1.79,9.14,9.14,0,0,0,2.07-2.35,11.41,11.41,0,0,0,1.33-3.15,15.89,15.89,0,0,0,.49-4.22,10.89,10.89,0,0,0-1.28-5.5,9.78,9.78,0,0,0-3.4-3.51,14.7,14.7,0,0,0-4.82-1.85,27.8,27.8,0,0,0-5.47-.54c-.66,0-1.37,0-2.13,0v7l.34,0c.78,0,1.56-.06,2.36-.06a6.62,6.62,0,0,1,4.64,1.45,5.11,5.11,0,0,1,1.59,4q0,3.41-2,4.88a8.81,8.81,0,0,1-5.27,1.47H166v6h3.21l8,15.54h9Z" transform="translate(-120.41 -116.06)"/><path class="cls-3" d="M148.87,160.36a21.9,21.9,0,0,0,4.65,2.3q2.52.92,4.65,1.81a14.75,14.75,0,0,1,3.57,2.1,4.1,4.1,0,0,1,.73.78v-9.14c-.39-.17-.78-.33-1.18-.48q-2.53-1-4.65-1.93a15.84,15.84,0,0,1-3.57-2.15,3.79,3.79,0,0,1-1.45-3.07,3.35,3.35,0,0,1,1.56-2.89,7.43,7.43,0,0,1,4.28-1.08,21.38,21.38,0,0,1,2.86.2c.76.11,1.47.24,2.15.4v-7a36.24,36.24,0,0,0-5-.34,17.12,17.12,0,0,0-5.56.85,13,13,0,0,0-4.28,2.38,10.72,10.72,0,0,0-3.77,8.33,9.38,9.38,0,0,0,1.45,5.45A12.59,12.59,0,0,0,148.87,160.36Z" transform="translate(-120.41 -116.06)"/><path class="cls-3" d="M162.47,172.08a4.46,4.46,0,0,1-1,1,8.28,8.28,0,0,1-4.93,1.28,14.68,14.68,0,0,1-3.32-.37,17.13,17.13,0,0,1-2.86-.94L150,173v-5.61h-6.24v10.54c.49.27,1.13.59,1.93,1a24.41,24.41,0,0,0,2.75,1.07,25.2,25.2,0,0,0,3.4.85,21.77,21.77,0,0,0,4,.34,22.64,22.64,0,0,0,6-.76l.64-.19Z" transform="translate(-120.41 -116.06)"/><path class="cls-3" d="M231.63,177c-.92,0-1.85,0-2.81-.07s-1.93-.12-2.92-.23-1.93-.24-2.81-.38-1.68-.31-2.4-.49v-5.52c.94.09,2,.17,3.2.24s2.44.1,3.73.14,2.51,0,3.67,0a13.81,13.81,0,0,0,3.09-.3,3.83,3.83,0,0,0,2-1.09,3.07,3.07,0,0,0,.71-2.14v-1.28a3.05,3.05,0,0,0-.92-2.38,3.81,3.81,0,0,0-2.62-.82h-3c-3.33,0-5.89-.73-7.66-2.2s-2.67-3.95-2.67-7.47v-1.7q0-5.09,2.93-7.45c1.94-1.57,4.73-2.35,8.34-2.35q1.93,0,3.84.18c1.28.13,2.5.28,3.68.45s2.19.36,3,.55v5.51c-1.44-.09-3.05-.19-4.83-.28s-3.42-.14-4.93-.14a12.22,12.22,0,0,0-2.85.3,3.35,3.35,0,0,0-1.91,1.16,3.85,3.85,0,0,0-.66,2.4v.95a3.15,3.15,0,0,0,1,2.64,5,5,0,0,0,3.06.8h3.44a10.49,10.49,0,0,1,5.21,1.15,7.49,7.49,0,0,1,3.07,3.19,10.13,10.13,0,0,1,1,4.62v2a10.83,10.83,0,0,1-1.53,6.27,7.63,7.63,0,0,1-4.24,3A23.51,23.51,0,0,1,231.63,177Z" transform="translate(-120.41 -116.06)"/><path class="cls-3" d="M258.41,177a14.17,14.17,0,0,1-4.27-.61,8,8,0,0,1-3.37-2.05,9.61,9.61,0,0,1-2.19-3.91,21.13,21.13,0,0,1-.78-6.25,24.46,24.46,0,0,1,.7-6.41,9.71,9.71,0,0,1,2.1-4,7.55,7.55,0,0,1,3.42-2.09,15.76,15.76,0,0,1,4.58-.62,36.57,36.57,0,0,1,4.41.26,30.1,30.1,0,0,1,4.4.92v4h-6.64a8,8,0,0,0-3.49.64,3.81,3.81,0,0,0-1.91,2.35,15.74,15.74,0,0,0-.59,4.93,14.83,14.83,0,0,0,.59,4.81,3.52,3.52,0,0,0,1.93,2.22,9.25,9.25,0,0,0,3.56.56h6.93v4a24.57,24.57,0,0,1-2.73.69c-1,.2-2.13.36-3.28.47S259.51,177,258.41,177Z" transform="translate(-120.41 -116.06)"/><path class="cls-3" d="M271.65,176.73V151.41H277l1.6,3.87a14.69,14.69,0,0,1,3.09-3,6.84,6.84,0,0,1,4.08-1.23c.35,0,.7,0,1.06,0a4.52,4.52,0,0,1,1,.19v7.16l-1.48-.16c-.52,0-1-.07-1.49-.07a9,9,0,0,0-2.47.31,7.28,7.28,0,0,0-2,.89,8.81,8.81,0,0,0-1.77,1.53v15.75Z" transform="translate(-120.41 -116.06)"/><path class="cls-3" d="M296,177a6.48,6.48,0,0,1-4.66-1.69,6.19,6.19,0,0,1-1.8-4.72v-2.26a6.16,6.16,0,0,1,2-4.74q2-1.86,6.32-1.86h6.46V160a4,4,0,0,0-.43-2,2.54,2.54,0,0,0-1.58-1.14,13.15,13.15,0,0,0-3.51-.35h-7.59V152.5a34.43,34.43,0,0,1,4.27-1,33.9,33.9,0,0,1,5.87-.43,17.17,17.17,0,0,1,5.4.75,6.21,6.21,0,0,1,3.39,2.6,9.52,9.52,0,0,1,1.16,5.09v17.21h-5.52L304.71,174a4.48,4.48,0,0,1-1.13.85,17.06,17.06,0,0,1-2,1,14.33,14.33,0,0,1-2.59.82A13.39,13.39,0,0,1,296,177Zm3.54-4.85a5.37,5.37,0,0,0,1.06-.12c.39-.08.8-.17,1.22-.28s.82-.22,1.18-.33.66-.22.9-.31.38-.16.45-.19V165l-4.24.28a4.45,4.45,0,0,0-2.72.94,2.82,2.82,0,0,0-.87,2.17v1A2.87,2.87,0,0,0,297,171a2.29,2.29,0,0,0,1.09.87A4.3,4.3,0,0,0,299.57,172.16Z" transform="translate(-120.41 -116.06)"/><path class="cls-3" d="M316.59,187.91v-36.5h5.85l1.13,2.41a16.72,16.72,0,0,1,2-1.35,11.72,11.72,0,0,1,2.36-1,9,9,0,0,1,2.68-.4,8.56,8.56,0,0,1,4,.9,7.27,7.27,0,0,1,2.81,2.59,12.37,12.37,0,0,1,1.6,4.13,25.86,25.86,0,0,1,.52,5.45,26.78,26.78,0,0,1-.8,7,8.21,8.21,0,0,1-2.76,4.46,8.54,8.54,0,0,1-5.4,1.53,16.56,16.56,0,0,1-3.65-.42,13.58,13.58,0,0,1-3.37-1.23v12.5Zm11.74-16.6a3.7,3.7,0,0,0,3.65-2.74,13,13,0,0,0,.59-4.47,14.64,14.64,0,0,0-.54-4.46,4.59,4.59,0,0,0-1.48-2.31,3.66,3.66,0,0,0-2.22-.68,7.35,7.35,0,0,0-2.69.47,15.26,15.26,0,0,0-2.07.94v12a8.38,8.38,0,0,0,2.21.9A10.14,10.14,0,0,0,328.33,171.31Z" transform="translate(-120.41 -116.06)"/><path class="cls-3" d="M344.5,176.73V141.84h14.43a14.15,14.15,0,0,1,3.87.5,7.8,7.8,0,0,1,3.16,1.71,8.24,8.24,0,0,1,2.14,3.4,16.71,16.71,0,0,1,.78,5.56,15.76,15.76,0,0,1-.47,4.11,9.09,9.09,0,0,1-1.25,2.78,7,7,0,0,1-1.77,1.74,12.12,12.12,0,0,1-2,1.09l6.51,14h-7.12l-5.61-12.92-1.3,0c-.49,0-1,0-1.48,0h-1.51c-.51,0-1,0-1.37,0v13Zm7-18.53h6.22a5.58,5.58,0,0,0,1.7-.24,3.06,3.06,0,0,0,1.32-.82,3.81,3.81,0,0,0,.87-1.58,8.61,8.61,0,0,0,.31-2.55,7.91,7.91,0,0,0-.31-2.42,3.41,3.41,0,0,0-.87-1.51,3.13,3.13,0,0,0-1.32-.76,6.33,6.33,0,0,0-1.7-.21h-6.22Z" transform="translate(-120.41 -116.06)"/><path class="cls-4" d="M374.58,147.69c-.66,0-1-.32-1-.95v-4.62a.88.88,0,0,1,1-1H380a.82.82,0,0,1,.66.29,1,1,0,0,1,.24.7v4.62c0,.63-.3.95-.9.95Z" transform="translate(-120.41 -116.06)"/><rect class="cls-3" x="253.32" y="35.36" width="6.98" height="25.32"/><path class="cls-3" d="M392.64,188.42a12,12,0,0,1-4.26-.7,6.76,6.76,0,0,1-2.95-2.05,5.17,5.17,0,0,1-1.09-3.33v-.75a5.38,5.38,0,0,1,1.16-3.47,7.3,7.3,0,0,1,3-2.19,10.28,10.28,0,0,1,3.92-.75l2.07,2.16a4.83,4.83,0,0,0-1.84.33,2.84,2.84,0,0,0-1.25,1,2.68,2.68,0,0,0-.45,1.58v.52a2.42,2.42,0,0,0,.95,2.07,4.42,4.42,0,0,0,2.69.71h4.81a5.16,5.16,0,0,0,2.8-.68,2.28,2.28,0,0,0,1.06-2.05V180a2.51,2.51,0,0,0-.4-1.44,2.64,2.64,0,0,0-1.18-.92,5.49,5.49,0,0,0-2.1-.33H394c-2.83,0-4.92-.52-6.29-1.58a4.74,4.74,0,0,1-2.05-3.89,4.86,4.86,0,0,1,1.1-3.23,5.48,5.48,0,0,1,3.09-1.72,7.34,7.34,0,0,1-2.4-1.95,7.22,7.22,0,0,1-1.27-2.5,10,10,0,0,1-.38-2.81,8.47,8.47,0,0,1,1.16-4.62,6.81,6.81,0,0,1,3.48-2.73,16.5,16.5,0,0,1,5.87-.9H410v3.82l-3.86.71A10.84,10.84,0,0,1,407,157a6.64,6.64,0,0,1,.73,1.66,9,9,0,0,1,.3,2.52,8.18,8.18,0,0,1-.92,3.91,6.52,6.52,0,0,1-2.92,2.78,11.43,11.43,0,0,1-5.3,1h-4.48a5,5,0,0,0-2.08.38,1.38,1.38,0,0,0-.8,1.37,1.11,1.11,0,0,0,.68,1.1,3.65,3.65,0,0,0,1.54.31h7a14.11,14.11,0,0,1,5,.76,6.12,6.12,0,0,1,3.11,2.42,8,8,0,0,1,1.08,4.41v.71a7.54,7.54,0,0,1-2.35,5.87q-2.37,2.15-7.27,2.14Zm2.74-24.7h2.69a4.55,4.55,0,0,0,2.24-.45,2.48,2.48,0,0,0,1.08-1.23,5,5,0,0,0,.31-1.81,4.85,4.85,0,0,0-.4-2.12,2.34,2.34,0,0,0-1.16-1.14,4.72,4.72,0,0,0-1.89-.32h-2.64a4,4,0,0,0-2.68.77,3.45,3.45,0,0,0-.9,2.71,3.78,3.78,0,0,0,.85,2.72A3.35,3.35,0,0,0,395.38,163.72Z" transform="translate(-120.41 -116.06)"/><path class="cls-3" d="M413.53,176.73V140.8h7V154a14.86,14.86,0,0,1,3.56-2.07,11.25,11.25,0,0,1,4.5-.94,8.07,8.07,0,0,1,4.57,1.13,6.34,6.34,0,0,1,2.46,3.16,13.53,13.53,0,0,1,.75,4.71v16.74h-7V160.89a3.91,3.91,0,0,0-.47-2,3.06,3.06,0,0,0-1.27-1.2,4.18,4.18,0,0,0-1.89-.4,6.77,6.77,0,0,0-1.91.26,9.38,9.38,0,0,0-1.74.68,14.62,14.62,0,0,0-1.58.94v17.59Z" transform="translate(-120.41 -116.06)"/><path class="cls-3" d="M451.2,176.73a11.2,11.2,0,0,1-4.74-.85,5.06,5.06,0,0,1-2.61-2.83,13.41,13.41,0,0,1-.71-5.33l.24-10.7h-4v-4.48l4.2-1.13.94-7.07h5.52v7.07H456V157h-5.94v10.66a6.18,6.18,0,0,0,.19,1.7,2.71,2.71,0,0,0,.54,1.06,2.3,2.3,0,0,0,.83.59,3.59,3.59,0,0,0,.94.23l3.21.29v5.18Z" transform="translate(-120.41 -116.06)"/></svg>