<svg xmlns="http://www.w3.org/2000/svg" width="25" height="25" viewBox="0 0 25 25">
  <g id="MDI_eye-off" data-name="MDI / eye-off" opacity="0.6">
    <g id="Boundary" fill="#3384d8" stroke="rgba(0,0,0,0)" stroke-width="1" opacity="0">
      <rect width="25" height="25" stroke="none"/>
      <rect x="0.5" y="0.5" width="24" height="24" fill="none"/>
    </g>
    <path id="Path_eye-off" data-name="Path / eye-off" d="M12.322,9.316l3.314,3.326v-.168A3.147,3.147,0,0,0,12.5,9.316h-.178m-4.5.842,1.62,1.632a2.919,2.919,0,0,0-.084.684A3.147,3.147,0,0,0,12.5,15.632a2.93,2.93,0,0,0,.68-.084l1.62,1.632a5.153,5.153,0,0,1-2.3.558,5.235,5.235,0,0,1-4.673-7.579M2.045,4.337l2.384,2.4.47.474A12.449,12.449,0,0,0,1,12.474a12.366,12.366,0,0,0,11.5,7.895,12.238,12.238,0,0,0,4.579-.884l.45.442L20.581,23l1.328-1.337L3.373,3M12.5,7.211a5.245,5.245,0,0,1,5.227,5.263,5.085,5.085,0,0,1-.376,1.916l3.063,3.084a12.464,12.464,0,0,0,3.586-5A12.305,12.305,0,0,0,8.318,5.316l2.269,2.263A5.247,5.247,0,0,1,12.5,7.211Z" transform="translate(0)" fill="#3384d8"/>
  </g>
</svg>
